# xmcd CD database file
#
# Track frame offsets:
#	150
#	87514
#	114804
#	136471
#
# Disc length: 2297 seconds
#
# Revision: 2
# Processed by: cddbd v1.5.1PL0 Copyright (c) Steve Scherf et al.
# Submitted via: CDex 1.50
#
DISCID=2c08f704
DTITLE=Dezo Ursiny - Provisorium
DYEAR=1972
DGENRE=Rock
TTITLE0=Christmas Time
TTITLE1=Looking For The Place To Spend Next Summer
TTITLE2=Apple Tree In Winter
TTITLE3=I Have Found
EXTD=YEAR: 1972
EXTT0=
EXTT1=
EXTT2=
EXTT3=
PLAYORDER=
